<svg xmlns="http://www.w3.org/2000/svg" xmlns:xlink="http://www.w3.org/1999/xlink" width="1200" height="1200" viewBox="0 0 1200 1200"><rect width="100%" height="100%" fill="#3f51b5"></rect><g transform="translate(600 600) scale(0.69 0.69) rotate(180) translate(-600 -600)" style="fill:#ffffff"><svg fill="#ffffff" xmlns="http://www.w3.org/2000/svg" xmlns:xlink="http://www.w3.org/1999/xlink" version="1.1" x="0px" y="0px" viewBox="0 0 32 32" style="enable-background:new 0 0 32 32;" xml:space="preserve"><g><g><path d="M11.1127796,30.9398098c-1.9917316,0-3.9816389-0.757843-5.4973249-2.2735291    c-1.4691753-1.4682636-2.2771764-3.4207802-2.2771764-5.497324s0.808001-4.0290623,2.2771764-5.4973259l16.40625-16.40625    c0.2735882-0.2735895,0.7168045-0.2735895,0.9903927,0c0.2735901,0.2735895,0.2735901,0.7168045,0,0.9903939l-16.40625,16.40625    c-1.203794,1.2037945-1.8667922,2.8042927-1.8667922,4.5069313s0.6629982,3.3031368,1.8667922,4.5069313    c2.4841924,2.4841919,6.5278449,2.4841919,9.0138626,0L27.466135,15.8285503c0.2735901-0.2735891,0.7168045-0.2735891,0.9903946,0    c0.2735901,0.2735901,0.2735901,0.7168045,0,0.9903946L16.6101055,28.6662807    C15.0944185,30.1819668,13.1026869,30.9398098,11.1127796,30.9398098z"></path></g><g><circle cx="11.3899441" cy="22.8915787" r="4.225636"></circle></g><g><path d="M17.8257542,20.5789757c-0.179657,0-0.3584023-0.0683975-0.4951973-0.2051926    c-0.2735901-0.2735882-0.2735901-0.7168026,0-0.9903927l9.6495018-9.6495018c0.2735901-0.2735891,0.7168045-0.2735891,0.9903946,0    c0.2735882,0.2735891,0.2735882,0.7168045,0,0.9903936l-9.6495018,9.6495008    C18.1841564,20.5105782,18.0054111,20.5789757,17.8257542,20.5789757z"></path></g><g><path d="M15.3397369,16.2197838c-0.179657,0-0.3584023-0.0683975-0.4951963-0.2051926    c-0.2735901-0.2735891-0.2735901-0.7168045,0-0.9903936l7.6632414-7.6632419c0.2735901-0.2735896,0.7168045-0.2735896,0.9903946,0    c0.2735882,0.2735896,0.2735882,0.716804,0,0.9903941l-7.6632423,7.6632414    C15.6981392,16.1513863,15.5193949,16.2197838,15.3397369,16.2197838z"></path></g></g></svg></g></svg>